<?xml version="1.0" encoding="utf-8"?>
<!-- Generator: Adobe Illustrator 22.0.1, SVG Export Plug-In . SVG Version: 6.00 Build 0)  -->
<svg version="1.1" id="Capa_1" xmlns="http://www.w3.org/2000/svg" xmlns:xlink="http://www.w3.org/1999/xlink" x="0px" y="0px"
	 viewBox="0 0 23.3 25" style="enable-background:new 0 0 23.3 25;" xml:space="preserve">
<style type="text/css">
	.st0{fill:#D91F26;}
</style>
<path id="Shape_1_copy" class="st0" d="M6.3,1.1v9.3H1.1c-0.4,0-0.8,0.2-1,0.6c-0.2,0.4-0.1,0.8,0.2,1.1l10.6,12.5
	c0.4,0.5,1.1,0.5,1.6,0.1c0,0,0.1-0.1,0.1-0.1l10.6-12.5c0.3-0.3,0.3-0.8,0.2-1.1c-0.2-0.4-0.6-0.6-1-0.6H17V1.1
	C17,0.5,16.5,0,15.9,0c0,0,0,0,0,0H7.4C6.8,0,6.4,0.5,6.3,1.1C6.3,1.1,6.3,1.1,6.3,1.1z"/>
</svg>
