<?xml version="1.0" encoding="utf-8"?>
<!-- Generator: Adobe Illustrator 22.0.1, SVG Export Plug-In . SVG Version: 6.00 Build 0)  -->
<svg version="1.1" id="Capa_1" xmlns="http://www.w3.org/2000/svg" xmlns:xlink="http://www.w3.org/1999/xlink" x="0px" y="0px"
	 viewBox="0 0 23.3 25" style="enable-background:new 0 0 23.3 25;" xml:space="preserve">
<style type="text/css">
	.st0{fill:#4CCC3F;}
</style>
<path id="Shape_1_copy" class="st0" d="M17,23.9v-9.3h5.3c0.4,0,0.8-0.2,1-0.6c0.2-0.4,0.1-0.8-0.2-1.1L12.5,0.4
	c-0.4-0.5-1.1-0.5-1.6-0.1c0,0-0.1,0.1-0.1,0.1L0.3,12.8C0,13.2-0.1,13.6,0.1,14c0.2,0.4,0.6,0.6,1,0.6h5.3v9.3
	c0,0.6,0.5,1.1,1.1,1.1c0,0,0,0,0,0h8.5C16.5,25,17,24.5,17,23.9C17,23.9,17,23.9,17,23.9z"/>
</svg>
